<svg id="Capa_1" enable-background="new 0 0 512 512" height="512" viewBox="0 0 512 512" width="512" xmlns="http://www.w3.org/2000/svg"><g><path d="m387.891 279.819v-36.946l52.329 32.966 15.887-25.22-186.072-117.219v-71.441h32.538v-29.808h-32.538v-32.151h-29.807v32.151h-30.892v29.807h30.892v72.477l-184.43 116.183 15.887 25.22 52.332-32.967v36.951l-124.017 73.617v158.561h512v-158.564zm-358.084 202.374v-111.784l94.211-55.924v167.708zm211.244 0v-102.586c0-8.218 6.685-14.904 14.904-14.904 8.218 0 14.904 6.686 14.904 14.904v102.586zm59.614 0v-102.586c0-24.653-20.057-44.711-44.711-44.711s-44.711 20.057-44.711 44.711v102.586h-57.418v-258.099l102.128-64.337 102.13 64.338v258.098zm181.528 0h-94.302v-167.718l94.302 55.937z"/><path d="m241.051 232.662h29.807v59.614h-29.807z"/><path d="m62.87 388.727h29.807v56.213h-29.807z"/><path d="m419.315 388.727h29.807v56.213h-29.807z"/></g></svg>