<?xml version="1.0" standalone="no"?>
<!DOCTYPE svg PUBLIC "-//W3C//DTD SVG 20010904//EN"
 "http://www.w3.org/TR/2001/REC-SVG-20010904/DTD/svg10.dtd">
<svg version="1.0" xmlns="http://www.w3.org/2000/svg"
 width="104.000000pt" height="96.000000pt" viewBox="0 0 104.000000 96.000000"
 preserveAspectRatio="xMidYMid meet">

<g transform="translate(0.000000,96.000000) scale(0.100000,-0.100000)"
fill="#000000" stroke="none">
<path d="M490 938 c0 -26 78 -193 87 -185 2 3 -7 27 -20 54 -14 26 -31 68 -38
93 -15 55 -29 73 -29 38z"/>
<path d="M400 940 c0 -5 5 -10 10 -10 6 0 10 5 10 10 0 6 -4 10 -10 10 -5 0
-10 -4 -10 -10z"/>
<path d="M640 930 c0 -5 5 -10 10 -10 6 0 10 5 10 10 0 6 -4 10 -10 10 -5 0
-10 -4 -10 -10z"/>
<path d="M570 910 c0 -5 5 -10 10 -10 6 0 10 5 10 10 0 6 -4 10 -10 10 -5 0
-10 -4 -10 -10z"/>
<path d="M600 841 c0 -38 38 -134 74 -187 33 -49 34 -40 1 18 -14 25 -33 77
-43 117 -21 80 -32 99 -32 52z"/>
<path d="M430 840 c0 -5 5 -10 10 -10 6 0 10 5 10 10 0 6 -4 10 -10 10 -5 0
-10 -4 -10 -10z"/>
<path d="M373 773 c3 -5 36 -18 72 -28 36 -9 94 -35 128 -56 52 -33 57 -35 28
-10 -48 42 -140 89 -191 97 -28 5 -41 3 -37 -3z"/>
<path d="M670 770 c0 -5 5 -10 10 -10 6 0 10 5 10 10 0 6 -4 10 -10 10 -5 0
-10 -4 -10 -10z"/>
<path d="M400 710 c0 -5 5 -10 10 -10 6 0 10 5 10 10 0 6 -4 10 -10 10 -5 0
-10 -4 -10 -10z"/>
<path d="M44 675 c-22 -34 -43 -94 -44 -125 0 -29 34 -90 51 -90 8 0 10 -45 7
-157 -4 -134 -8 -167 -27 -217 -21 -54 -22 -59 -7 -74 12 -13 21 -14 34 -6 22
14 61 128 69 207 l6 62 15 -35 c13 -31 18 -126 10 -199 -4 -34 26 -51 49 -28
26 25 31 169 9 234 -9 25 -16 75 -16 110 0 63 0 63 25 57 41 -10 71 3 89 40 9
19 16 41 16 50 0 29 -30 17 -47 -19 -19 -40 -27 -42 -68 -15 -21 14 -47 20
-87 20 -50 0 -60 3 -74 25 -18 28 -13 72 17 123 10 18 19 40 19 48 0 23 -28
16 -46 -11z m106 -225 c0 -5 -4 -10 -10 -10 -5 0 -10 5 -10 10 0 6 5 10 10 10
6 0 10 -4 10 -10z m4 -51 c9 -44 7 -72 -4 -89 -22 -33 -39 40 -24 98 9 31 20
27 28 -9z"/>
<path d="M445 660 c3 -5 18 -10 33 -10 23 0 91 -21 177 -54 11 -5 4 2 -15 14
-66 43 -214 80 -195 50z"/>
<path d="M110 600 c-11 -11 -20 -29 -20 -40 0 -26 34 -60 60 -60 24 0 60 34
60 55 0 20 -45 65 -65 65 -8 0 -24 -9 -35 -20z"/>
<path d="M390 600 c0 -5 5 -10 10 -10 6 0 10 5 10 10 0 6 -4 10 -10 10 -5 0
-10 -4 -10 -10z"/>
<path d="M595 580 c-3 -5 -1 -10 4 -10 6 0 11 5 11 10 0 6 -2 10 -4 10 -3 0
-8 -4 -11 -10z"/>
<path d="M933 564 c-15 -24 -15 -29 -2 -53 11 -20 22 -26 49 -26 27 0 38 6 49
26 13 24 13 29 -2 53 -12 18 -26 26 -47 26 -21 0 -35 -8 -47 -26z"/>
<path d="M725 556 c-16 -12 -17 -16 -6 -30 7 -9 19 -16 27 -16 7 0 16 -9 19
-20 4 -11 17 -28 31 -36 13 -9 24 -21 24 -27 0 -15 51 -67 67 -67 7 0 10 -7 7
-17 -5 -17 -5 -17 9 0 8 9 17 17 21 17 13 0 -6 -44 -42 -99 -59 -91 -90 -223
-58 -250 26 -22 44 -2 52 55 3 30 9 54 13 54 3 0 18 -24 32 -52 32 -64 52 -79
75 -57 14 15 13 22 -21 88 l-36 72 41 75 c47 85 62 165 37 199 -13 17 -25 19
-84 17 -62 -3 -73 0 -113 27 -25 17 -45 34 -46 38 -2 16 -16 43 -23 43 -4 0
-16 -6 -26 -14z m245 -120 c0 -2 -8 -10 -17 -17 -16 -13 -17 -12 -4 4 13 16
21 21 21 13z m-55 -26 c18 -8 17 -9 -7 -9 -16 -1 -28 4 -28 9 0 12 8 12 35 0z"/>
<path d="M386 518 c-21 -30 -20 -51 3 -72 27 -25 72 -17 90 15 13 24 13 29 -2
53 -22 34 -69 36 -91 4z"/>
<path d="M570 499 c-13 -6 -52 -37 -86 -69 -34 -33 -71 -60 -81 -60 -11 0 -30
11 -43 25 -28 30 -50 32 -50 6 0 -26 55 -71 86 -71 14 0 38 7 53 15 29 14 29
14 59 -32 l30 -46 -34 -44 c-28 -37 -34 -53 -34 -94 0 -51 19 -111 39 -123 6
-4 20 -4 31 -1 22 7 27 44 9 62 -6 6 -12 30 -13 52 0 32 5 47 25 67 l26 26 6
-46 c15 -109 108 -208 133 -142 3 8 -8 33 -25 56 -37 51 -48 102 -32 145 14
38 -4 86 -63 174 -20 29 -36 55 -36 57 0 2 11 4 25 4 26 0 45 -25 45 -60 0
-23 26 -38 40 -24 12 12 -5 76 -28 102 -22 26 -51 33 -82 21z m-39 -91 c0 -4
16 -23 35 -41 18 -19 34 -44 34 -56 0 -40 -29 -21 -56 37 -16 31 -30 61 -32
66 -3 5 1 7 8 5 6 -3 11 -8 11 -11z"/>
</g>
</svg>
